<svg id="Calque_1" data-name="Calque 1" xmlns="http://www.w3.org/2000/svg" viewBox="0 0 283.46 283.46"><defs><style>.cls-1{fill:#000d23;}.cls-2{fill:#c0cee5;opacity:0.5;}.cls-3{fill:#2a3b4f;}</style></defs><title>arrow</title><circle class="cls-1" cx="141.73" cy="141.73" r="141.73"/><path class="cls-2" d="M160.9,258.6c.45-.3.88-.63,1.31-1A13,13,0,0,1,160.9,258.6Z" transform="translate(0)"/><path class="cls-3" d="M211.42,164.4a15.32,15.32,0,0,1,0,21.66l-58.85,58.86h0c-.35.34-.71.67-1.09,1s-.77.6-1.17.88l-.63.4-.64.37c-.21.11-.43.23-.66.33a5.15,5.15,0,0,1-.59.27,14.06,14.06,0,0,1-1.5.56l-.72.2c-.21.05-.41.11-.62.15-.48.1-1,.18-1.48.24s-.93.08-1.4.09h-.33c-.27,0-.53,0-.8,0-.43,0-.86-.06-1.3-.12s-.77-.12-1.14-.19c-.2,0-.4-.1-.59-.15s-.45-.12-.67-.19a13.65,13.65,0,0,1-1.55-.57,4.47,4.47,0,0,1-.59-.27c-.39-.19-.77-.39-1.14-.61a5.84,5.84,0,0,1-.53-.33,15.48,15.48,0,0,1-2.53-2L72.05,186.06a15.3,15.3,0,0,1,0-21.66h0a15.31,15.31,0,0,1,21.66,0L126.32,197a.05.05,0,0,0,.09,0V49.86c0-8.28,6.36-15.42,14.63-15.79a15.33,15.33,0,0,1,16,15.31V197a0,0,0,0,0,.08,0l32.62-32.6a15.32,15.32,0,0,1,21.67,0Z" transform="translate(0)"/></svg>
