<?xml version="1.0" encoding="UTF-8" standalone="no"?>
<svg
   xmlns:dc="http://purl.org/dc/elements/1.1/"
   xmlns:cc="http://creativecommons.org/ns#"
   xmlns:rdf="http://www.w3.org/1999/02/22-rdf-syntax-ns#"
   xmlns:svg="http://www.w3.org/2000/svg"
   xmlns="http://www.w3.org/2000/svg"
   xmlns:sodipodi="http://sodipodi.sourceforge.net/DTD/sodipodi-0.dtd"
   xmlns:inkscape="http://www.inkscape.org/namespaces/inkscape"
   version="1.1"
   id="Capa_1"
   x="0px"
   y="0px"
   width="356.926px"
   height="356.926px"
   viewBox="0 0 356.926 356.926"
   style="enable-background:new 0 0 356.926 356.926;"
   xml:space="preserve"
   sodipodi:docname="earth.svg"
   inkscape:version="1.0.1 (3bc2e813f5, 2020-09-07)"><metadata
   id="metadata57"><rdf:RDF><cc:Work
       rdf:about=""><dc:format>image/svg+xml</dc:format><dc:type
         rdf:resource="http://purl.org/dc/dcmitype/StillImage" /></cc:Work></rdf:RDF></metadata><defs
   id="defs55" /><sodipodi:namedview
   pagecolor="#ffffff"
   bordercolor="#666666"
   borderopacity="1"
   objecttolerance="10"
   gridtolerance="10"
   guidetolerance="10"
   inkscape:pageopacity="0"
   inkscape:pageshadow="2"
   inkscape:window-width="1920"
   inkscape:window-height="1017"
   id="namedview53"
   showgrid="false"
   inkscape:zoom="1.6839367"
   inkscape:cx="248.21038"
   inkscape:cy="191.33409"
   inkscape:window-x="-8"
   inkscape:window-y="-8"
   inkscape:window-maximized="1"
   inkscape:current-layer="Capa_1" />
<g
   id="g20"
   style="fill:#32a833;fill-opacity:1;stroke:none">
	<g
   id="g18"
   style="fill:#32a833;fill-opacity:1;stroke:none;stroke-opacity:1">
		<path
   d="m 211.89,213.669 c 0,-10.475 -8.521,-18.997 -18.996,-18.997 -0.401,0 -0.799,0.017 -1.193,0.041 v 2.406 c 0.396,-0.028 0.79,-0.061 1.193,-0.061 9.158,0 16.608,7.452 16.608,16.611 0,9.159 -7.45,16.61 -16.608,16.61 -0.269,0 -0.53,-0.027 -0.795,-0.041 v 0.897 1.509 4.723 H 186.2 v 3.182 h 13.388 v -3.182 h -5.104 v -4.774 c 9.734,-0.812 17.406,-8.986 17.406,-18.924 z"
   id="path2"
   style="fill:#32a833;fill-opacity:1;stroke:none;stroke-opacity:1" />
		<g
   id="g16"
   style="fill:#32a833;fill-opacity:1;stroke:none;stroke-opacity:1">
			<polygon
   points="260.072,79.408 260.398,82.045 256.447,82.882 255.913,88.517 260.677,88.517 266.998,87.913 270.251,84.021 266.788,82.678 264.883,80.488 262.024,75.858 260.677,69.329 255.286,70.409 253.799,72.721 253.799,75.312 256.378,77.084 "
   id="polygon4"
   style="fill:#32a833;fill-opacity:1;stroke:none;stroke-opacity:1" />
			<polygon
   points="255.773,78.037 252.637,76.683 248.233,77.706 244.945,82.94 244.945,86.344 248.768,86.344 255.495,81.569 "
   id="polygon6"
   style="fill:#32a833;fill-opacity:1;stroke:none;stroke-opacity:1" />
			<path
   d="m 164.852,96.598 -0.976,2.498 h -4.7 v 2.428 h 1.121 c 0,0 0.07,0.511 0.168,1.191 l 2.876,-0.238 1.783,-1.121 0.465,-2.248 2.335,-0.204 0.912,-1.888 -2.138,-0.442 z"
   id="path8"
   style="fill:#32a833;fill-opacity:1;stroke:none;stroke-opacity:1" />
			<polygon
   points="152.739,101.001 152.565,103.366 155.976,103.081 156.324,100.705 154.279,99.096 "
   id="polygon10"
   style="fill:#32a833;fill-opacity:1;stroke:none;stroke-opacity:1" />
			<path
   d="m 356.868,176.633 c -0.047,-5.223 -0.313,-10.398 -0.802,-15.505 -1.662,-17.01 -5.717,-33.311 -11.828,-48.589 -0.441,-1.127 -0.859,-2.283 -1.336,-3.41 -8.121,-19.183 -19.531,-36.646 -33.474,-51.721 -0.906,-0.987 -1.835,-1.952 -2.765,-2.916 -2.649,-2.736 -5.333,-5.415 -8.156,-7.971 C 266.788,17.631 224.642,0 178.463,0 131.896,0 89.447,17.957 57.635,47.271 50.222,54.103 43.414,61.574 37.227,69.556 13.919,99.717 0,137.49 0,178.463 c 0,98.398 80.059,178.463 178.463,178.463 69.225,0 129.316,-39.643 158.897,-97.399 6.32,-12.327 11.247,-25.491 14.569,-39.294 0.837,-3.486 1.58,-7.018 2.208,-10.585 1.801,-10.137 2.788,-20.56 2.788,-31.196 -0.023,-0.593 -0.057,-1.203 -0.057,-1.819 z m -33.59,-71.327 1.022,-1.162 c 1.359,2.637 2.649,5.304 3.846,8.028 l -1.708,-0.07 -3.172,0.436 v -7.233 h 0.012 z m -25.794,-31.15 0.023,-7.971 c 2.812,2.975 5.508,6.036 8.087,9.214 l -3.207,4.781 -11.247,-0.111 -0.696,-2.341 z M 82.214,54.364 v -0.302 h 3.567 l 0.325,-1.226 h 5.838 v 2.55 l -1.691,2.236 h -8.052 v -3.259 h 0.013 z m 5.711,7.959 c 0,0 3.578,-0.61 3.892,-0.61 0.296,0 0,3.573 0,3.573 l -8.081,0.511 -1.534,-1.847 z m 246.717,70.833 h -13.06 l -7.971,-5.92 -8.365,0.808 v 5.112 h -2.648 l -2.848,-2.033 -14.512,-3.671 v -9.4 l -18.38,1.423 -5.705,3.062 h -7.285 l -3.59,-0.36 -8.854,4.926 v 9.254 l -18.097,13.065 1.5,5.583 h 3.677 l -0.964,5.315 -2.58,0.953 -0.133,13.884 15.633,17.823 h 6.819 l 0.407,-1.081 h 12.246 l 3.531,-3.265 h 6.948 l 3.812,3.811 10.328,1.069 -1.359,13.757 11.503,20.28 -6.064,11.572 0.406,5.438 4.775,4.752 v 13.095 l 6.251,8.412 v 10.897 h 5.391 c -30.046,36.913 -75.823,60.534 -127.026,60.534 -90.312,0 -163.783,-73.454 -163.783,-163.777 0,-22.732 4.665,-44.401 13.077,-64.089 v -5.106 l 5.855,-7.11 c 2.033,-3.846 4.212,-7.582 6.542,-11.235 l 0.25,2.974 -6.791,8.261 c -2.108,3.985 -4.084,8.052 -5.855,12.217 v 9.312 l 6.791,3.276 v 12.955 l 6.535,11.136 5.316,0.808 0.68,-3.817 -6.245,-9.661 -1.237,-9.388 h 3.677 l 1.557,9.673 9.051,13.193 -2.33,4.27 5.734,8.795 14.291,3.532 v -2.306 l 5.711,0.808 -0.534,4.078 4.484,0.825 6.948,1.888 9.8,11.171 12.507,0.941 1.237,10.207 -8.58,5.984 -0.39,9.115 -1.237,5.588 12.386,15.5 0.947,5.32 c 0,0 4.49,1.209 5.048,1.209 0.535,0 10.062,7.227 10.062,7.227 v 28.024 l 3.393,0.964 -2.294,12.92 5.71,7.634 -1.068,12.827 7.563,13.269 9.696,8.47 9.731,0.197 0.952,-3.148 -7.163,-6.029 0.418,-2.986 1.272,-3.684 0.273,-3.741 -4.839,-0.14 -2.44,-3.066 4.021,-3.881 0.546,-2.916 -4.496,-1.29 0.261,-2.719 6.402,-0.976 9.73,-4.672 3.265,-6.006 10.196,-13.06 -2.312,-10.213 3.131,-5.438 9.399,0.278 6.327,-5.02 2.051,-19.693 7.04,-8.877 1.237,-5.704 -6.39,-2.045 -4.224,-6.942 -14.419,-0.145 -11.444,-4.351 -0.534,-8.162 -3.811,-6.675 -10.335,-0.145 -5.995,-9.382 -5.298,-2.585 -0.273,2.858 -9.672,0.569 -3.532,-4.926 -10.079,-2.045 -8.302,9.603 -13.065,-2.23 -0.953,-14.727 -9.527,-1.632 3.805,-7.221 -1.092,-4.148 -12.531,8.371 -7.877,-0.964 -2.817,-6.158 1.737,-6.355 4.339,-8.005 9.998,-5.072 h 19.322 l -0.064,5.891 6.948,3.235 -0.558,-10.062 5.007,-5.037 10.103,-6.64 0.703,-4.659 10.068,-10.486 10.707,-5.937 -0.941,-0.773 7.256,-6.826 2.655,0.703 1.214,1.522 2.76,-3.062 0.68,-0.296 -3.021,-0.43 -3.084,-0.987 v -2.963 l 1.632,-1.33 h 3.579 l 1.655,0.726 1.418,2.858 1.737,-0.267 v -0.244 l 0.5,0.163 5.02,-0.772 0.714,-2.463 2.852,0.726 v 2.667 l -2.666,1.818 h 0.018 l 0.377,2.928 9.115,2.794 c 0,0 0,0.035 0.023,0.11 l 2.079,-0.18 0.146,-3.939 -7.209,-3.282 -0.396,-1.894 5.972,-2.033 0.273,-5.722 -6.245,-3.805 -0.412,-9.667 -8.581,4.218 h -3.143 l 0.837,-7.355 -11.688,-2.748 -4.816,3.654 v 11.119 l -8.673,2.754 -3.486,7.244 -3.758,0.604 v -9.277 l -8.162,-1.133 -4.096,-2.667 -1.639,-6.007 14.611,-8.54 7.14,-2.179 0.72,4.804 3.991,-0.215 0.308,-2.411 4.166,-0.599 0.07,-0.842 -1.784,-0.738 -0.407,-2.544 5.118,-0.43 3.091,-3.213 0.18,-0.238 0.035,0.012 0.941,-0.976 10.753,-1.354 4.746,4.032 -12.467,6.64 15.871,3.747 2.045,-5.31 h 6.948 l 2.44,-4.625 -4.903,-1.226 v -5.856 l -15.359,-6.803 -10.62,1.226 -6.001,3.125 0.407,7.628 -6.257,-0.953 -0.964,-4.212 6.007,-5.449 -10.898,-0.535 -3.125,0.953 -1.359,3.677 4.084,0.686 -0.813,4.084 -6.936,0.406 -1.092,2.725 -10.075,0.277 c 0,0 -0.273,-5.711 -0.703,-5.711 -0.389,0 7.901,-0.145 7.901,-0.145 l 5.995,-5.85 -3.271,-1.632 -4.339,4.223 -7.222,-0.406 -4.403,-6.019 h -9.254 l -9.661,7.21 h 8.848 l 0.796,2.597 -2.307,2.172 9.807,0.279 1.487,3.532 -11.032,-0.407 -0.546,-2.725 -6.925,-1.499 -3.689,-2.033 -8.255,0.069 c 27.043,-19.699 60.284,-31.358 96.226,-31.358 41.403,0 79.263,15.476 108.124,40.915 l -1.929,3.474 -7.564,2.962 -3.194,3.462 0.743,4.02 3.893,0.546 2.358,5.867 6.704,-2.713 1.127,7.86 h -2.045 l -5.519,-0.819 -6.111,1.022 -5.926,8.377 -8.458,1.319 -1.221,7.25 3.579,0.842 -1.046,4.665 -8.412,-1.69 -7.703,1.69 -1.639,4.293 1.325,9.01 4.531,2.115 7.61,-0.046 5.123,-0.465 1.58,-4.078 8.018,-10.422 5.264,1.081 5.193,-4.7 0.976,3.678 12.78,8.621 -1.557,2.108 -5.763,-0.308 2.23,3.137 3.556,0.79 4.159,-1.737 -0.093,-5.002 1.859,-0.923 -1.487,-1.575 -8.528,-4.758 -2.254,-6.314 h 7.099 l 2.243,2.248 6.134,5.257 0.244,6.367 6.332,6.733 2.348,-9.231 4.392,-2.394 0.802,7.552 4.287,4.7 8.54,-0.139 c 1.661,4.247 3.148,8.563 4.427,12.978 z M 97.324,81.092 l 4.27,-2.044 3.881,0.929 -1.324,5.211 -4.183,1.319 z m 22.749,12.258 v 3.37 h -9.783 l -3.689,-1.028 0.918,-2.341 4.7,-1.94 h 6.437 v 1.94 h 1.417 z m 4.509,4.7 v 3.259 l -2.463,1.58 -3.044,0.575 c 0,0 0,-4.903 0,-5.415 h 5.507 z m -2.76,-1.33 v -3.893 l 3.363,3.067 z m 1.533,7.848 v 3.178 l -2.347,2.347 h -5.211 l 0.813,-3.573 2.463,-0.215 0.5,-1.226 z M 110.39,98.05 h 5.408 l -6.948,9.696 -2.852,-1.534 0.616,-4.084 z m 22.139,5.414 v 3.166 h -5.211 l -1.417,-2.062 v -2.951 h 0.406 z m -4.781,-4.368 1.475,-1.557 2.498,1.557 -1.999,1.656 z m 209.543,42.332 0.511,-0.61 c 0.232,0.93 0.441,1.859 0.662,2.789 z"
   id="path12"
   style="fill:#32a833;fill-opacity:1;stroke:none;stroke-opacity:1" />
			<path
   d="m 27.734,109.268 v 5.106 c 1.771,-4.177 3.747,-8.231 5.855,-12.223 z"
   id="path14"
   style="fill:#32a833;fill-opacity:1;stroke:none;stroke-opacity:1" />
		</g>
	</g>
</g>
<g
   id="g22">
</g>
<g
   id="g24">
</g>
<g
   id="g26">
</g>
<g
   id="g28">
</g>
<g
   id="g30">
</g>
<g
   id="g32">
</g>
<g
   id="g34">
</g>
<g
   id="g36">
</g>
<g
   id="g38">
</g>
<g
   id="g40">
</g>
<g
   id="g42">
</g>
<g
   id="g44">
</g>
<g
   id="g46">
</g>
<g
   id="g48">
</g>
<g
   id="g50">
</g>
</svg>
